PathFileType	4	(X/Y/Z)	C:\Users\°ÂÌØÂü\Desktop\20210112\bx_y_10_901-Unnamed.trc
DataRate	CameraRate	NumFrames	NumMarkers	Units	OrigDataRate	OrigDataStartFrame	OrigNumFrames
50.00	50.00	       4	0	mm	50.00	266	       530
Frame#	Time	
		

266	5.300	-758.60211	91.73348	1852.22693	-690.85919	-72.15376	874.60529	-712.02893	140.37633	577.04932	-667.88989	91.36912	1434.43054	-725.79846	268.49091	754.34399	-681.74268	275.83710	883.95300				-676.04956	174.36232	158.60449	-753.27240	242.28624	579.63800	-791.40869	250.83185	503.52228	-518.04999	-72.78722	143.13312	-753.83563	273.55328	1545.83484	-604.58643	17.30120	169.22910	-676.66730	52.02045	160.38861	-713.40417	153.63763	217.95786	-772.69672	223.69621	204.53461	-596.07666	223.84322	174.34718	-882.48035	296.19290	144.72406	-560.48370	261.06396	164.99747	-840.31641	89.85574	1057.69214	-629.12103	307.40302	160.97745	-528.17102	304.30569	146.48378	-666.71643	300.19742	159.24164	-759.51239	-80.66892	1544.28015	-770.59784	-9.21372	206.42619	-796.15527	50.56877	173.19133	-797.52576	173.40172	182.94125	-783.06091	-38.43581	488.18329	-560.82013	-40.23487	162.84590	-664.92780	-71.27752	160.55397	-876.02838	-78.54763	141.55200				-686.89282	11.94018	522.56146	-738.56042	-29.02654	568.76813	-622.50482	212.59264	823.10889	-623.19031	-81.01813	156.92757	-751.22357	244.63716	647.68945	-724.32330	-33.26715	620.25714	-696.33685	203.44427	536.93896	-633.36639	213.04695	1077.53271	-710.30829	75.26620	577.15424	-720.45526	72.84910	217.69008	-620.87653	-12.64763	810.85327	
267	5.320	-756.58936	91.79050	1852.39771	-690.88586	-72.16306	874.74042	-712.02893	140.37633	577.04932	-667.35681	91.47282	1434.35010	-725.78259	268.03299	753.91406	-681.72345	275.91891	883.96039	-727.93182	-53.08828	722.37549	-676.23920	174.27370	158.25078	-753.20074	242.39186	579.46454	-791.51538	250.74365	503.62677	-518.15741	-72.53640	143.16754	-753.24817	274.68182	1546.22058	-604.49933	17.40157	169.35394	-676.55914	51.95069	160.68021	-713.44983	153.67282	217.98680	-772.63153	223.71507	204.44498	-596.21356	223.93060	174.20972	-882.54785	296.18851	144.71675	-560.57953	261.02182	164.98169	-840.21844	89.81165	1057.66724	-629.25232	307.38467	161.09158	-528.22302	304.09048	146.60939	-666.75763	300.13614	159.42200	-758.88763	-80.68425	1544.25610	-770.45599	-9.37134	206.39835	-795.98389	50.37545	173.14261	-797.73193	173.12082	183.53981	-783.08337	-38.33076	488.04419	-560.88031	-40.07885	162.83539	-664.95850	-71.15145	160.45505	-876.03320	-78.59757	141.50241				-686.91211	11.78312	522.82782	-738.72168	-29.05625	568.86584	-622.50482	212.59264	823.10889	-623.11053	-81.13081	156.96767	-751.34528	244.72307	647.75037	-724.59314	-33.34257	620.21759	-696.22815	203.53749	536.95825	-633.31427	212.93951	1077.41028	-710.45001	75.12429	577.17065	-720.45526	72.84910	217.69008	-620.92004	-12.65822	810.72302	
268	5.340	-754.47083	92.35194	1852.39307	-690.88446	-72.30718	874.72748	-711.89600	139.87364	577.26111	-667.11121	91.56982	1434.50903	-725.38849	267.60156	753.67914	-681.57019	275.85516	883.78558	-728.14740	-53.14612	722.35852	-676.01532	174.32768	158.45438	-753.30316	241.99661	579.53387	-791.54016	250.91464	503.74268	-518.25867	-72.57241	143.30508	-752.58905	274.71164	1546.05432	-604.49933	17.40157	169.35394	-676.78967	51.89780	160.39519	-713.32379	153.60461	217.87938	-772.92914	223.51172	204.55649	-596.19177	223.97240	174.24911	-882.48578	296.13718	144.66689	-560.60223	261.23459	165.13927	-840.17834	89.84580	1057.80115	-629.27435	307.38553	161.02870	-528.19403	303.93927	146.40359	-666.89740	300.17636	159.35796	-758.28906	-80.91251	1544.25635	-771.10895	-9.41879	206.61035	-796.18555	50.35175	173.32233	-797.73486	173.06651	183.46107	-783.22424	-38.47773	488.09985	-560.85297	-40.04446	162.92743	-664.95703	-71.34591	160.63127	-876.03320	-78.59757	141.50241				-687.00482	11.63834	522.74896	-738.87158	-29.14510	568.75806	-622.50482	212.59264	823.10889	-623.26910	-81.16145	156.96622	-751.34528	244.72307	647.75037	-724.95490	-33.71555	620.37189	-696.15930	203.48244	537.02386	-633.14337	212.92644	1077.25171	-710.52411	75.14830	577.29840	-720.45526	72.84910	217.69008	-620.98486	-12.72532	810.47546	
269	5.360	-752.30499	92.18823	1852.46863	-690.92499	-72.38136	874.67499	-711.89600	139.87364	577.26111	-666.51520	91.95995	1434.59692	-725.52924	268.04459	754.07715	-681.48932	275.69681	883.76923	-728.08881	-53.15287	722.46887	-676.08728	174.18251	158.40727	-752.91431	242.23224	579.37909	-791.45044	250.61870	503.67468	-518.13867	-72.61939	143.08739	-751.89648	274.84244	1545.95911	-604.49908	17.40717	169.52896	-676.78967	51.89780	160.39519	-713.41095	153.56479	217.85771	-772.72833	223.79948	204.41331	-596.10651	223.85088	174.51480	-882.56555	296.26141	144.79929	-560.57208	261.31674	165.18797	-839.95581	89.68306	1057.74036	-629.25751	307.56369	161.14081	-528.25732	304.46939	146.57794	-666.70532	300.21371	159.28452	-757.33636	-81.14558	1544.38794	-770.66187	-9.10724	206.25417	-796.07452	50.60128	173.29660	-797.73486	173.06651	183.46107	-783.29346	-38.42842	487.87784	-560.90497	-40.07223	162.86069	-664.87927	-71.32293	160.59470	-876.02838	-78.54763	141.55200				-686.90045	11.87725	522.95721	-739.07751	-29.21041	568.75598	-622.37415	212.52885	823.04407	-623.42517	-81.24326	156.89366	-751.20911	244.51494	647.71405	-724.98584	-33.86227	620.39435	-695.92102	203.26135	537.17053	-633.00000	212.79350	1077.40002	-710.50183	75.01985	577.35938	-720.45526	72.84910	217.69008	-620.99939	-12.71794	810.70319	
